<svg width="81" height="81" viewBox="0 0 81 81" fill="none" xmlns="http://www.w3.org/2000/svg">
<path d="M24.5345 37.1604L28.5064 33.0466L36.8133 41.3535L37.6668 42.207V40.9999V14.3333H43.3335V40.9999V42.207L44.187 41.3535L52.4939 33.0466L56.4659 37.1604L40.5002 53.1261L24.5345 37.1604ZM61.0002 60.4999V50.9999H66.6668V60.4999C66.6668 62.1996 66.0675 63.6422 64.8549 64.8547C63.6424 66.0672 62.1998 66.6666 60.5002 66.6666H20.5002C18.8005 66.6666 17.3579 66.0672 16.1454 64.8547C14.9328 63.6422 14.3335 62.1996 14.3335 60.4999V50.9999H20.0002V60.4999V60.9999H20.5002H60.5002H61.0002V60.4999Z" fill="#FEF7FF" stroke="#1D1D1D"/>
</svg>
